<mxfile host="app.diagrams.net" modified="2023-05-23T15:14:47.941Z" agent="Mozilla/5.0 (Windows NT 10.0; Win64; x64) AppleWebKit/537.36 (KHTML, like Gecko) Chrome/113.0.0.0 Safari/537.36 Edg/113.0.1774.50" etag="LfhZcjBCO0V_7Fjf-fNJ" version="21.3.2" type="device">
  <diagram id="C5RBs43oDa-KdzZeNtuy" name="Page-1">
    <mxGraphModel dx="1235" dy="686" grid="1" gridSize="10" guides="1" tooltips="1" connect="1" arrows="1" fold="1" page="1" pageScale="1" pageWidth="827" pageHeight="1169" math="0" shadow="0">
      <root>
        <mxCell id="WIyWlLk6GJQsqaUBKTNV-0" />
        <mxCell id="WIyWlLk6GJQsqaUBKTNV-1" parent="WIyWlLk6GJQsqaUBKTNV-0" />
        <mxCell id="zkfFHV4jXpPFQw0GAbJ--6" value="Tool" style="swimlane;fontStyle=0;align=center;verticalAlign=top;childLayout=stackLayout;horizontal=1;startSize=26;horizontalStack=0;resizeParent=1;resizeLast=0;collapsible=1;marginBottom=0;rounded=0;shadow=0;strokeWidth=1;" parent="WIyWlLk6GJQsqaUBKTNV-1" vertex="1">
          <mxGeometry x="18" y="302" width="160" height="280" as="geometry">
            <mxRectangle x="40" y="40" width="160" height="26" as="alternateBounds" />
          </mxGeometry>
        </mxCell>
        <mxCell id="zkfFHV4jXpPFQw0GAbJ--7" value="- uint Id" style="text;align=left;verticalAlign=top;spacingLeft=4;spacingRight=4;overflow=hidden;rotatable=0;points=[[0,0.5],[1,0.5]];portConstraint=eastwest;" parent="zkfFHV4jXpPFQw0GAbJ--6" vertex="1">
          <mxGeometry y="26" width="160" height="26" as="geometry" />
        </mxCell>
        <mxCell id="zkfFHV4jXpPFQw0GAbJ--8" value="- string Name" style="text;align=left;verticalAlign=top;spacingLeft=4;spacingRight=4;overflow=hidden;rotatable=0;points=[[0,0.5],[1,0.5]];portConstraint=eastwest;rounded=0;shadow=0;html=0;" parent="zkfFHV4jXpPFQw0GAbJ--6" vertex="1">
          <mxGeometry y="52" width="160" height="26" as="geometry" />
        </mxCell>
        <mxCell id="J0EJhRp7IK-JrTyirVrI-0" value="- string Country" style="text;align=left;verticalAlign=top;spacingLeft=4;spacingRight=4;overflow=hidden;rotatable=0;points=[[0,0.5],[1,0.5]];portConstraint=eastwest;rounded=0;shadow=0;html=0;" vertex="1" parent="zkfFHV4jXpPFQw0GAbJ--6">
          <mxGeometry y="78" width="160" height="26" as="geometry" />
        </mxCell>
        <mxCell id="J0EJhRp7IK-JrTyirVrI-1" value="- uint Year" style="text;align=left;verticalAlign=top;spacingLeft=4;spacingRight=4;overflow=hidden;rotatable=0;points=[[0,0.5],[1,0.5]];portConstraint=eastwest;rounded=0;shadow=0;html=0;" vertex="1" parent="zkfFHV4jXpPFQw0GAbJ--6">
          <mxGeometry y="104" width="160" height="26" as="geometry" />
        </mxCell>
        <mxCell id="J0EJhRp7IK-JrTyirVrI-2" value="- string Brand" style="text;align=left;verticalAlign=top;spacingLeft=4;spacingRight=4;overflow=hidden;rotatable=0;points=[[0,0.5],[1,0.5]];portConstraint=eastwest;rounded=0;shadow=0;html=0;" vertex="1" parent="zkfFHV4jXpPFQw0GAbJ--6">
          <mxGeometry y="130" width="160" height="26" as="geometry" />
        </mxCell>
        <mxCell id="zkfFHV4jXpPFQw0GAbJ--9" value="" style="line;html=1;strokeWidth=1;align=left;verticalAlign=middle;spacingTop=-1;spacingLeft=3;spacingRight=3;rotatable=0;labelPosition=right;points=[];portConstraint=eastwest;" parent="zkfFHV4jXpPFQw0GAbJ--6" vertex="1">
          <mxGeometry y="156" width="160" height="8" as="geometry" />
        </mxCell>
        <mxCell id="zkfFHV4jXpPFQw0GAbJ--10" value="+ Tool()" style="text;align=left;verticalAlign=top;spacingLeft=4;spacingRight=4;overflow=hidden;rotatable=0;points=[[0,0.5],[1,0.5]];portConstraint=eastwest;fontStyle=0" parent="zkfFHV4jXpPFQw0GAbJ--6" vertex="1">
          <mxGeometry y="164" width="160" height="26" as="geometry" />
        </mxCell>
        <mxCell id="zkfFHV4jXpPFQw0GAbJ--11" value="+ Tool(uint id, &#xa;string name, &#xa;string country, &#xa;uint year, &#xa;string brand)" style="text;align=left;verticalAlign=top;spacingLeft=4;spacingRight=4;overflow=hidden;rotatable=0;points=[[0,0.5],[1,0.5]];portConstraint=eastwest;" parent="zkfFHV4jXpPFQw0GAbJ--6" vertex="1">
          <mxGeometry y="190" width="160" height="90" as="geometry" />
        </mxCell>
        <mxCell id="J0EJhRp7IK-JrTyirVrI-3" value="Database" style="swimlane;fontStyle=0;align=center;verticalAlign=top;childLayout=stackLayout;horizontal=1;startSize=26;horizontalStack=0;resizeParent=1;resizeLast=0;collapsible=1;marginBottom=0;rounded=0;shadow=0;strokeWidth=1;" vertex="1" parent="WIyWlLk6GJQsqaUBKTNV-1">
          <mxGeometry x="250" y="266" width="200" height="440" as="geometry">
            <mxRectangle x="40" y="40" width="160" height="26" as="alternateBounds" />
          </mxGeometry>
        </mxCell>
        <mxCell id="J0EJhRp7IK-JrTyirVrI-4" value="- BindingList&lt;Tool&gt;" style="text;align=left;verticalAlign=top;spacingLeft=4;spacingRight=4;overflow=hidden;rotatable=0;points=[[0,0.5],[1,0.5]];portConstraint=eastwest;" vertex="1" parent="J0EJhRp7IK-JrTyirVrI-3">
          <mxGeometry y="26" width="200" height="26" as="geometry" />
        </mxCell>
        <mxCell id="J0EJhRp7IK-JrTyirVrI-5" value="- XmlSerializer Ser" style="text;align=left;verticalAlign=top;spacingLeft=4;spacingRight=4;overflow=hidden;rotatable=0;points=[[0,0.5],[1,0.5]];portConstraint=eastwest;rounded=0;shadow=0;html=0;" vertex="1" parent="J0EJhRp7IK-JrTyirVrI-3">
          <mxGeometry y="52" width="200" height="26" as="geometry" />
        </mxCell>
        <mxCell id="J0EJhRp7IK-JrTyirVrI-9" value="" style="line;html=1;strokeWidth=1;align=left;verticalAlign=middle;spacingTop=-1;spacingLeft=3;spacingRight=3;rotatable=0;labelPosition=right;points=[];portConstraint=eastwest;" vertex="1" parent="J0EJhRp7IK-JrTyirVrI-3">
          <mxGeometry y="78" width="200" height="8" as="geometry" />
        </mxCell>
        <mxCell id="J0EJhRp7IK-JrTyirVrI-12" value="+ BindingList&lt;Tool&gt; Get()" style="text;align=left;verticalAlign=top;spacingLeft=4;spacingRight=4;overflow=hidden;rotatable=0;points=[[0,0.5],[1,0.5]];portConstraint=eastwest;rounded=0;shadow=0;html=0;" vertex="1" parent="J0EJhRp7IK-JrTyirVrI-3">
          <mxGeometry y="86" width="200" height="26" as="geometry" />
        </mxCell>
        <mxCell id="J0EJhRp7IK-JrTyirVrI-13" value="+ void Set(BindingList&lt;Tool&gt; tools)" style="text;align=left;verticalAlign=top;spacingLeft=4;spacingRight=4;overflow=hidden;rotatable=0;points=[[0,0.5],[1,0.5]];portConstraint=eastwest;rounded=0;shadow=0;html=0;" vertex="1" parent="J0EJhRp7IK-JrTyirVrI-3">
          <mxGeometry y="112" width="200" height="26" as="geometry" />
        </mxCell>
        <mxCell id="J0EJhRp7IK-JrTyirVrI-14" value="+ void Add(uint id,&#xa;string name,&#xa;string country,&#xa;uint year,&#xa;string brand)" style="text;align=left;verticalAlign=top;spacingLeft=4;spacingRight=4;overflow=hidden;rotatable=0;points=[[0,0.5],[1,0.5]];portConstraint=eastwest;rounded=0;shadow=0;html=0;" vertex="1" parent="J0EJhRp7IK-JrTyirVrI-3">
          <mxGeometry y="138" width="200" height="82" as="geometry" />
        </mxCell>
        <mxCell id="J0EJhRp7IK-JrTyirVrI-15" value="+ void Clear()" style="text;align=left;verticalAlign=top;spacingLeft=4;spacingRight=4;overflow=hidden;rotatable=0;points=[[0,0.5],[1,0.5]];portConstraint=eastwest;rounded=0;shadow=0;html=0;" vertex="1" parent="J0EJhRp7IK-JrTyirVrI-3">
          <mxGeometry y="220" width="200" height="30" as="geometry" />
        </mxCell>
        <mxCell id="J0EJhRp7IK-JrTyirVrI-16" value="+ void Remove(int index)" style="text;align=left;verticalAlign=top;spacingLeft=4;spacingRight=4;overflow=hidden;rotatable=0;points=[[0,0.5],[1,0.5]];portConstraint=eastwest;rounded=0;shadow=0;html=0;" vertex="1" parent="J0EJhRp7IK-JrTyirVrI-3">
          <mxGeometry y="250" width="200" height="30" as="geometry" />
        </mxCell>
        <mxCell id="J0EJhRp7IK-JrTyirVrI-17" value="+ void Replace(int index,&#xa;uint id,&#xa;string name,&#xa;string country,&#xa;uint year,&#xa;string brand)" style="text;align=left;verticalAlign=top;spacingLeft=4;spacingRight=4;overflow=hidden;rotatable=0;points=[[0,0.5],[1,0.5]];portConstraint=eastwest;rounded=0;shadow=0;html=0;" vertex="1" parent="J0EJhRp7IK-JrTyirVrI-3">
          <mxGeometry y="280" width="200" height="100" as="geometry" />
        </mxCell>
        <mxCell id="J0EJhRp7IK-JrTyirVrI-18" value="+ void SaveToFile(string Path)" style="text;align=left;verticalAlign=top;spacingLeft=4;spacingRight=4;overflow=hidden;rotatable=0;points=[[0,0.5],[1,0.5]];portConstraint=eastwest;rounded=0;shadow=0;html=0;" vertex="1" parent="J0EJhRp7IK-JrTyirVrI-3">
          <mxGeometry y="380" width="200" height="30" as="geometry" />
        </mxCell>
        <mxCell id="J0EJhRp7IK-JrTyirVrI-19" value="+ void OpenFromFile(string Path)" style="text;align=left;verticalAlign=top;spacingLeft=4;spacingRight=4;overflow=hidden;rotatable=0;points=[[0,0.5],[1,0.5]];portConstraint=eastwest;rounded=0;shadow=0;html=0;" vertex="1" parent="J0EJhRp7IK-JrTyirVrI-3">
          <mxGeometry y="410" width="200" height="30" as="geometry" />
        </mxCell>
        <mxCell id="J0EJhRp7IK-JrTyirVrI-20" value="MainForm" style="swimlane;fontStyle=0;align=center;verticalAlign=top;childLayout=stackLayout;horizontal=1;startSize=26;horizontalStack=0;resizeParent=1;resizeLast=0;collapsible=1;marginBottom=0;rounded=0;shadow=0;strokeWidth=1;" vertex="1" parent="WIyWlLk6GJQsqaUBKTNV-1">
          <mxGeometry x="520" y="120" width="288" height="550" as="geometry">
            <mxRectangle x="40" y="40" width="160" height="26" as="alternateBounds" />
          </mxGeometry>
        </mxCell>
        <mxCell id="J0EJhRp7IK-JrTyirVrI-21" value="+ Database database" style="text;align=left;verticalAlign=top;spacingLeft=4;spacingRight=4;overflow=hidden;rotatable=0;points=[[0,0.5],[1,0.5]];portConstraint=eastwest;" vertex="1" parent="J0EJhRp7IK-JrTyirVrI-20">
          <mxGeometry y="26" width="288" height="26" as="geometry" />
        </mxCell>
        <mxCell id="J0EJhRp7IK-JrTyirVrI-26" value="" style="line;html=1;strokeWidth=1;align=left;verticalAlign=middle;spacingTop=-1;spacingLeft=3;spacingRight=3;rotatable=0;labelPosition=right;points=[];portConstraint=eastwest;" vertex="1" parent="J0EJhRp7IK-JrTyirVrI-20">
          <mxGeometry y="52" width="288" height="8" as="geometry" />
        </mxCell>
        <mxCell id="J0EJhRp7IK-JrTyirVrI-27" value="+ MainForm()" style="text;align=left;verticalAlign=top;spacingLeft=4;spacingRight=4;overflow=hidden;rotatable=0;points=[[0,0.5],[1,0.5]];portConstraint=eastwest;fontStyle=0" vertex="1" parent="J0EJhRp7IK-JrTyirVrI-20">
          <mxGeometry y="60" width="288" height="26" as="geometry" />
        </mxCell>
        <mxCell id="J0EJhRp7IK-JrTyirVrI-29" value="- void CreateCorrectTool(ref uint id, ref string name, &#xa;ref string country, ref uint year, ref string brand)" style="text;align=left;verticalAlign=top;spacingLeft=4;spacingRight=4;overflow=hidden;rotatable=0;points=[[0,0.5],[1,0.5]];portConstraint=eastwest;fontStyle=0" vertex="1" parent="J0EJhRp7IK-JrTyirVrI-20">
          <mxGeometry y="86" width="288" height="44" as="geometry" />
        </mxCell>
        <mxCell id="J0EJhRp7IK-JrTyirVrI-30" value="- void add_button_Click()" style="text;align=left;verticalAlign=top;spacingLeft=4;spacingRight=4;overflow=hidden;rotatable=0;points=[[0,0.5],[1,0.5]];portConstraint=eastwest;fontStyle=0" vertex="1" parent="J0EJhRp7IK-JrTyirVrI-20">
          <mxGeometry y="130" width="288" height="30" as="geometry" />
        </mxCell>
        <mxCell id="J0EJhRp7IK-JrTyirVrI-31" value="- void clear_button_Click()" style="text;align=left;verticalAlign=top;spacingLeft=4;spacingRight=4;overflow=hidden;rotatable=0;points=[[0,0.5],[1,0.5]];portConstraint=eastwest;fontStyle=0" vertex="1" parent="J0EJhRp7IK-JrTyirVrI-20">
          <mxGeometry y="160" width="288" height="30" as="geometry" />
        </mxCell>
        <mxCell id="J0EJhRp7IK-JrTyirVrI-32" value="- void delete_button_Click()" style="text;align=left;verticalAlign=top;spacingLeft=4;spacingRight=4;overflow=hidden;rotatable=0;points=[[0,0.5],[1,0.5]];portConstraint=eastwest;fontStyle=0" vertex="1" parent="J0EJhRp7IK-JrTyirVrI-20">
          <mxGeometry y="190" width="288" height="30" as="geometry" />
        </mxCell>
        <mxCell id="J0EJhRp7IK-JrTyirVrI-33" value="- void change_button_Click()" style="text;align=left;verticalAlign=top;spacingLeft=4;spacingRight=4;overflow=hidden;rotatable=0;points=[[0,0.5],[1,0.5]];portConstraint=eastwest;fontStyle=0" vertex="1" parent="J0EJhRp7IK-JrTyirVrI-20">
          <mxGeometry y="220" width="288" height="30" as="geometry" />
        </mxCell>
        <mxCell id="J0EJhRp7IK-JrTyirVrI-34" value="- void change_button_Click()" style="text;align=left;verticalAlign=top;spacingLeft=4;spacingRight=4;overflow=hidden;rotatable=0;points=[[0,0.5],[1,0.5]];portConstraint=eastwest;fontStyle=0" vertex="1" parent="J0EJhRp7IK-JrTyirVrI-20">
          <mxGeometry y="250" width="288" height="30" as="geometry" />
        </mxCell>
        <mxCell id="J0EJhRp7IK-JrTyirVrI-35" value="- void sort_id_ToolStripMenuItem_Click()" style="text;align=left;verticalAlign=top;spacingLeft=4;spacingRight=4;overflow=hidden;rotatable=0;points=[[0,0.5],[1,0.5]];portConstraint=eastwest;fontStyle=0" vertex="1" parent="J0EJhRp7IK-JrTyirVrI-20">
          <mxGeometry y="280" width="288" height="30" as="geometry" />
        </mxCell>
        <mxCell id="J0EJhRp7IK-JrTyirVrI-36" value="- void sort_name_ToolStripMenuItem_Click()" style="text;align=left;verticalAlign=top;spacingLeft=4;spacingRight=4;overflow=hidden;rotatable=0;points=[[0,0.5],[1,0.5]];portConstraint=eastwest;fontStyle=0" vertex="1" parent="J0EJhRp7IK-JrTyirVrI-20">
          <mxGeometry y="310" width="288" height="30" as="geometry" />
        </mxCell>
        <mxCell id="J0EJhRp7IK-JrTyirVrI-37" value="- void sort_country_ToolStripMenuItem_Click()" style="text;align=left;verticalAlign=top;spacingLeft=4;spacingRight=4;overflow=hidden;rotatable=0;points=[[0,0.5],[1,0.5]];portConstraint=eastwest;fontStyle=0" vertex="1" parent="J0EJhRp7IK-JrTyirVrI-20">
          <mxGeometry y="340" width="288" height="30" as="geometry" />
        </mxCell>
        <mxCell id="J0EJhRp7IK-JrTyirVrI-38" value="- void sort_year_ToolStripMenuItem_Click()" style="text;align=left;verticalAlign=top;spacingLeft=4;spacingRight=4;overflow=hidden;rotatable=0;points=[[0,0.5],[1,0.5]];portConstraint=eastwest;fontStyle=0" vertex="1" parent="J0EJhRp7IK-JrTyirVrI-20">
          <mxGeometry y="370" width="288" height="30" as="geometry" />
        </mxCell>
        <mxCell id="J0EJhRp7IK-JrTyirVrI-39" value="- void sort_brand_ToolStripMenuItem_Click()" style="text;align=left;verticalAlign=top;spacingLeft=4;spacingRight=4;overflow=hidden;rotatable=0;points=[[0,0.5],[1,0.5]];portConstraint=eastwest;fontStyle=0" vertex="1" parent="J0EJhRp7IK-JrTyirVrI-20">
          <mxGeometry y="400" width="288" height="30" as="geometry" />
        </mxCell>
        <mxCell id="J0EJhRp7IK-JrTyirVrI-40" value="- void sort_brand_ToolStripMenuItem_Click()" style="text;align=left;verticalAlign=top;spacingLeft=4;spacingRight=4;overflow=hidden;rotatable=0;points=[[0,0.5],[1,0.5]];portConstraint=eastwest;fontStyle=0" vertex="1" parent="J0EJhRp7IK-JrTyirVrI-20">
          <mxGeometry y="430" width="288" height="30" as="geometry" />
        </mxCell>
        <mxCell id="J0EJhRp7IK-JrTyirVrI-41" value="- void save_ToolStripMenuItem_Click()" style="text;align=left;verticalAlign=top;spacingLeft=4;spacingRight=4;overflow=hidden;rotatable=0;points=[[0,0.5],[1,0.5]];portConstraint=eastwest;fontStyle=0" vertex="1" parent="J0EJhRp7IK-JrTyirVrI-20">
          <mxGeometry y="460" width="288" height="30" as="geometry" />
        </mxCell>
        <mxCell id="J0EJhRp7IK-JrTyirVrI-42" value="- void load_ToolStripMenuItem_Click()" style="text;align=left;verticalAlign=top;spacingLeft=4;spacingRight=4;overflow=hidden;rotatable=0;points=[[0,0.5],[1,0.5]];portConstraint=eastwest;fontStyle=0" vertex="1" parent="J0EJhRp7IK-JrTyirVrI-20">
          <mxGeometry y="490" width="288" height="30" as="geometry" />
        </mxCell>
        <mxCell id="J0EJhRp7IK-JrTyirVrI-43" value="- void about_author_ToolStripMenuItem_Click()" style="text;align=left;verticalAlign=top;spacingLeft=4;spacingRight=4;overflow=hidden;rotatable=0;points=[[0,0.5],[1,0.5]];portConstraint=eastwest;fontStyle=0" vertex="1" parent="J0EJhRp7IK-JrTyirVrI-20">
          <mxGeometry y="520" width="288" height="30" as="geometry" />
        </mxCell>
        <mxCell id="J0EJhRp7IK-JrTyirVrI-56" style="edgeStyle=orthogonalEdgeStyle;rounded=0;orthogonalLoop=1;jettySize=auto;html=1;entryX=0;entryY=0.5;entryDx=0;entryDy=0;" edge="1" parent="WIyWlLk6GJQsqaUBKTNV-1" source="J0EJhRp7IK-JrTyirVrI-44" target="J0EJhRp7IK-JrTyirVrI-27">
          <mxGeometry relative="1" as="geometry" />
        </mxCell>
        <mxCell id="J0EJhRp7IK-JrTyirVrI-44" value="Program" style="swimlane;fontStyle=0;align=center;verticalAlign=top;childLayout=stackLayout;horizontal=1;startSize=26;horizontalStack=0;resizeParent=1;resizeLast=0;collapsible=1;marginBottom=0;rounded=0;shadow=0;strokeWidth=1;" vertex="1" parent="WIyWlLk6GJQsqaUBKTNV-1">
          <mxGeometry x="280" y="60" width="160" height="52" as="geometry">
            <mxRectangle x="40" y="40" width="160" height="26" as="alternateBounds" />
          </mxGeometry>
        </mxCell>
        <mxCell id="J0EJhRp7IK-JrTyirVrI-51" value="- static void Main()" style="text;align=left;verticalAlign=top;spacingLeft=4;spacingRight=4;overflow=hidden;rotatable=0;points=[[0,0.5],[1,0.5]];portConstraint=eastwest;fontStyle=0" vertex="1" parent="J0EJhRp7IK-JrTyirVrI-44">
          <mxGeometry y="26" width="160" height="26" as="geometry" />
        </mxCell>
        <mxCell id="J0EJhRp7IK-JrTyirVrI-55" value="Form" style="html=1;whiteSpace=wrap;" vertex="1" parent="WIyWlLk6GJQsqaUBKTNV-1">
          <mxGeometry x="584" y="30" width="160" height="30" as="geometry" />
        </mxCell>
        <mxCell id="J0EJhRp7IK-JrTyirVrI-57" value="&lt;br&gt;" style="endArrow=block;endSize=16;endFill=0;html=1;rounded=0;exitX=0.5;exitY=0;exitDx=0;exitDy=0;entryX=0.5;entryY=1;entryDx=0;entryDy=0;" edge="1" parent="WIyWlLk6GJQsqaUBKTNV-1" source="J0EJhRp7IK-JrTyirVrI-20" target="J0EJhRp7IK-JrTyirVrI-55">
          <mxGeometry width="160" relative="1" as="geometry">
            <mxPoint x="568" y="360" as="sourcePoint" />
            <mxPoint x="728" y="360" as="targetPoint" />
          </mxGeometry>
        </mxCell>
        <mxCell id="J0EJhRp7IK-JrTyirVrI-63" value="" style="endArrow=diamondThin;endFill=1;endSize=24;html=1;rounded=0;entryX=0;entryY=0.5;entryDx=0;entryDy=0;exitX=1;exitY=0.5;exitDx=0;exitDy=0;spacingTop=0;startArrow=ERmany;startFill=0;targetPerimeterSpacing=24;startSize=24;" edge="1" parent="WIyWlLk6GJQsqaUBKTNV-1" source="J0EJhRp7IK-JrTyirVrI-2" target="J0EJhRp7IK-JrTyirVrI-14">
          <mxGeometry width="160" relative="1" as="geometry">
            <mxPoint x="320" y="380" as="sourcePoint" />
            <mxPoint x="480" y="380" as="targetPoint" />
          </mxGeometry>
        </mxCell>
        <mxCell id="J0EJhRp7IK-JrTyirVrI-66" value="" style="endArrow=diamondThin;endFill=1;endSize=24;html=1;rounded=0;entryX=0;entryY=0.5;entryDx=0;entryDy=0;exitX=1;exitY=0.5;exitDx=0;exitDy=0;" edge="1" parent="WIyWlLk6GJQsqaUBKTNV-1" source="J0EJhRp7IK-JrTyirVrI-14" target="J0EJhRp7IK-JrTyirVrI-36">
          <mxGeometry width="160" relative="1" as="geometry">
            <mxPoint x="438" y="455" as="sourcePoint" />
            <mxPoint x="498" y="455" as="targetPoint" />
          </mxGeometry>
        </mxCell>
        <mxCell id="J0EJhRp7IK-JrTyirVrI-67" value="MainForm создаётся в Program" style="text;html=1;align=center;verticalAlign=middle;resizable=0;points=[];autosize=1;strokeColor=none;fillColor=none;" vertex="1" parent="WIyWlLk6GJQsqaUBKTNV-1">
          <mxGeometry x="280" y="198" width="200" height="30" as="geometry" />
        </mxCell>
        <mxCell id="J0EJhRp7IK-JrTyirVrI-69" value="MainForm наследуется от Form" style="text;html=1;align=center;verticalAlign=middle;resizable=0;points=[];autosize=1;strokeColor=none;fillColor=none;" vertex="1" parent="WIyWlLk6GJQsqaUBKTNV-1">
          <mxGeometry x="460" y="82" width="200" height="30" as="geometry" />
        </mxCell>
        <mxCell id="J0EJhRp7IK-JrTyirVrI-70" value="MainForm&lt;br&gt;включает&lt;br&gt;Database" style="text;html=1;align=center;verticalAlign=middle;resizable=0;points=[];autosize=1;strokeColor=none;fillColor=none;" vertex="1" parent="WIyWlLk6GJQsqaUBKTNV-1">
          <mxGeometry x="444" y="372" width="80" height="60" as="geometry" />
        </mxCell>
        <mxCell id="J0EJhRp7IK-JrTyirVrI-71" value="Database&lt;br&gt;включает&lt;br&gt;Tool" style="text;html=1;align=center;verticalAlign=middle;resizable=0;points=[];autosize=1;strokeColor=none;fillColor=none;" vertex="1" parent="WIyWlLk6GJQsqaUBKTNV-1">
          <mxGeometry x="174" y="373" width="80" height="60" as="geometry" />
        </mxCell>
        <mxCell id="J0EJhRp7IK-JrTyirVrI-72" value="М" style="text;html=1;align=center;verticalAlign=middle;resizable=0;points=[];autosize=1;strokeColor=none;fillColor=none;" vertex="1" parent="WIyWlLk6GJQsqaUBKTNV-1">
          <mxGeometry x="174" y="460" width="30" height="30" as="geometry" />
        </mxCell>
        <mxCell id="J0EJhRp7IK-JrTyirVrI-73" value="М" style="text;html=1;align=center;verticalAlign=middle;resizable=0;points=[];autosize=1;strokeColor=none;fillColor=none;" vertex="1" parent="WIyWlLk6GJQsqaUBKTNV-1">
          <mxGeometry x="224" y="460" width="30" height="30" as="geometry" />
        </mxCell>
        <mxCell id="J0EJhRp7IK-JrTyirVrI-74" value="" style="endArrow=diamondThin;endFill=0;endSize=24;html=1;rounded=0;" edge="1" parent="WIyWlLk6GJQsqaUBKTNV-1">
          <mxGeometry width="160" relative="1" as="geometry">
            <mxPoint x="30" y="30" as="sourcePoint" />
            <mxPoint x="190" y="30" as="targetPoint" />
          </mxGeometry>
        </mxCell>
        <mxCell id="J0EJhRp7IK-JrTyirVrI-75" value="Агрегация" style="text;html=1;align=center;verticalAlign=middle;resizable=0;points=[];autosize=1;strokeColor=none;fillColor=none;" vertex="1" parent="WIyWlLk6GJQsqaUBKTNV-1">
          <mxGeometry x="30" y="30" width="80" height="30" as="geometry" />
        </mxCell>
        <mxCell id="J0EJhRp7IK-JrTyirVrI-76" value="" style="endArrow=diamondThin;endFill=1;endSize=24;html=1;rounded=0;" edge="1" parent="WIyWlLk6GJQsqaUBKTNV-1">
          <mxGeometry width="160" relative="1" as="geometry">
            <mxPoint x="30" y="60" as="sourcePoint" />
            <mxPoint x="190" y="60" as="targetPoint" />
          </mxGeometry>
        </mxCell>
        <mxCell id="J0EJhRp7IK-JrTyirVrI-77" value="Композиция" style="text;html=1;align=center;verticalAlign=middle;resizable=0;points=[];autosize=1;strokeColor=none;fillColor=none;" vertex="1" parent="WIyWlLk6GJQsqaUBKTNV-1">
          <mxGeometry x="30" y="60" width="90" height="30" as="geometry" />
        </mxCell>
        <mxCell id="J0EJhRp7IK-JrTyirVrI-78" value="&lt;br&gt;" style="endArrow=block;endSize=16;endFill=0;html=1;rounded=0;" edge="1" parent="WIyWlLk6GJQsqaUBKTNV-1">
          <mxGeometry width="160" relative="1" as="geometry">
            <mxPoint x="30" y="88" as="sourcePoint" />
            <mxPoint x="190" y="88" as="targetPoint" />
          </mxGeometry>
        </mxCell>
        <mxCell id="J0EJhRp7IK-JrTyirVrI-80" value="Наследование" style="text;html=1;align=center;verticalAlign=middle;resizable=0;points=[];autosize=1;strokeColor=none;fillColor=none;" vertex="1" parent="WIyWlLk6GJQsqaUBKTNV-1">
          <mxGeometry x="30" y="88" width="100" height="30" as="geometry" />
        </mxCell>
        <mxCell id="J0EJhRp7IK-JrTyirVrI-82" value="&lt;br&gt;" style="endArrow=classic;endSize=16;endFill=1;html=1;rounded=0;" edge="1" parent="WIyWlLk6GJQsqaUBKTNV-1">
          <mxGeometry width="160" relative="1" as="geometry">
            <mxPoint x="30" y="118" as="sourcePoint" />
            <mxPoint x="190" y="118" as="targetPoint" />
          </mxGeometry>
        </mxCell>
        <mxCell id="J0EJhRp7IK-JrTyirVrI-83" value="Ассоциация" style="text;html=1;align=center;verticalAlign=middle;resizable=0;points=[];autosize=1;strokeColor=none;fillColor=none;" vertex="1" parent="WIyWlLk6GJQsqaUBKTNV-1">
          <mxGeometry x="30" y="118" width="90" height="30" as="geometry" />
        </mxCell>
      </root>
    </mxGraphModel>
  </diagram>
</mxfile>
